<mxfile host="Electron" modified="2024-07-20T01:30:56.615Z" agent="Mozilla/5.0 (Windows NT 10.0; Win64; x64) AppleWebKit/537.36 (KHTML, like Gecko) draw.io/24.5.3 Chrome/124.0.6367.207 Electron/30.0.6 Safari/537.36" etag="uQ27XXx2fX_4lrYKe-wX" version="24.5.3" type="device">
  <diagram name="Page-1" id="zxkeIrwDSdOyF476j-Si">
    <mxGraphModel dx="830" dy="479" grid="1" gridSize="10" guides="1" tooltips="1" connect="1" arrows="1" fold="1" page="1" pageScale="1" pageWidth="850" pageHeight="1100" math="1" shadow="0">
      <root>
        <mxCell id="0" />
        <mxCell id="1" parent="0" />
        <mxCell id="3ZqTp2PG6nvpNKXpSqxm-3" style="rounded=0;orthogonalLoop=1;jettySize=auto;html=1;exitX=0.5;exitY=1;exitDx=0;exitDy=0;entryX=0.364;entryY=0.021;entryDx=0;entryDy=0;endArrow=none;endFill=0;fillColor=#d5e8d4;strokeColor=#82b366;strokeWidth=2;entryPerimeter=0;" parent="1" source="3ZqTp2PG6nvpNKXpSqxm-1" target="3ZqTp2PG6nvpNKXpSqxm-2" edge="1">
          <mxGeometry relative="1" as="geometry" />
        </mxCell>
        <mxCell id="3ZqTp2PG6nvpNKXpSqxm-1" value="" style="ellipse;whiteSpace=wrap;html=1;aspect=fixed;fillColor=#d5e8d4;strokeColor=#82b366;" parent="1" vertex="1">
          <mxGeometry x="307" y="280" width="20" height="20" as="geometry" />
        </mxCell>
        <mxCell id="r7OWkVXU5jPq6E68FOYq-9" style="rounded=0;orthogonalLoop=1;jettySize=auto;html=1;exitX=1;exitY=1;exitDx=0;exitDy=0;entryX=0;entryY=0;entryDx=0;entryDy=0;endArrow=none;endFill=0;fillColor=#f5f5f5;strokeColor=#666666;opacity=30;" parent="1" source="r7OWkVXU5jPq6E68FOYq-27" target="r7OWkVXU5jPq6E68FOYq-14" edge="1">
          <mxGeometry relative="1" as="geometry" />
        </mxCell>
        <mxCell id="r7OWkVXU5jPq6E68FOYq-14" value="" style="ellipse;whiteSpace=wrap;html=1;aspect=fixed;fillColor=#f5f5f5;fontColor=#333333;strokeColor=#666666;opacity=30;" parent="1" vertex="1">
          <mxGeometry x="334.75" y="305" width="10" height="10" as="geometry" />
        </mxCell>
        <mxCell id="3ZqTp2PG6nvpNKXpSqxm-5" style="rounded=0;orthogonalLoop=1;jettySize=auto;html=1;exitX=0.5;exitY=1;exitDx=0;exitDy=0;entryX=0.613;entryY=0.002;entryDx=0;entryDy=0;endArrow=none;endFill=0;fillColor=#dae8fc;strokeColor=#6c8ebf;strokeWidth=2;entryPerimeter=0;" parent="1" source="r7OWkVXU5jPq6E68FOYq-27" target="3ZqTp2PG6nvpNKXpSqxm-2" edge="1">
          <mxGeometry relative="1" as="geometry" />
        </mxCell>
        <mxCell id="r7OWkVXU5jPq6E68FOYq-27" value="&lt;font style=&quot;font-size: 10px;&quot;&gt;\(2\)&lt;/font&gt;" style="ellipse;whiteSpace=wrap;html=1;aspect=fixed;fillColor=#dae8fc;strokeColor=#6c8ebf;fontSize=10;fontColor=#6c8ebf;" parent="1" vertex="1">
          <mxGeometry x="312" y="280" width="20" height="20" as="geometry" />
        </mxCell>
        <mxCell id="r7OWkVXU5jPq6E68FOYq-30" value="&lt;font color=&quot;#82b366&quot;&gt;\(S_4=Y_2\)&lt;/font&gt;&lt;font color=&quot;#b85450&quot;&gt;\(Y_0\)&lt;/font&gt;" style="text;html=1;align=left;verticalAlign=middle;whiteSpace=wrap;rounded=0;fontSize=10;" parent="1" vertex="1">
          <mxGeometry x="399.99" y="296.5" width="70" height="10" as="geometry" />
        </mxCell>
        <mxCell id="r7OWkVXU5jPq6E68FOYq-31" value="&lt;font color=&quot;#6c8ebf&quot;&gt;\(S_6=Y_2\)&lt;/font&gt;&lt;font color=&quot;#b85450&quot;&gt;\(Z_0\)&lt;/font&gt;&lt;font color=&quot;#6c8ebf&quot;&gt;\(Y_1\)&lt;/font&gt;" style="text;html=1;align=left;verticalAlign=middle;whiteSpace=wrap;rounded=0;fontSize=10;" parent="1" vertex="1">
          <mxGeometry x="399.99" y="335" width="80" height="10" as="geometry" />
        </mxCell>
        <mxCell id="3ZqTp2PG6nvpNKXpSqxm-7" style="rounded=0;orthogonalLoop=1;jettySize=auto;html=1;exitX=0.5;exitY=1;exitDx=0;exitDy=0;entryX=0.5;entryY=0;entryDx=0;entryDy=0;endArrow=none;endFill=0;strokeWidth=2;fillColor=#d5e8d4;strokeColor=#82b366;" parent="1" source="3ZqTp2PG6nvpNKXpSqxm-2" target="3ZqTp2PG6nvpNKXpSqxm-6" edge="1">
          <mxGeometry relative="1" as="geometry" />
        </mxCell>
        <mxCell id="3ZqTp2PG6nvpNKXpSqxm-9" style="rounded=0;orthogonalLoop=1;jettySize=auto;html=1;exitX=1;exitY=1;exitDx=0;exitDy=0;entryX=0;entryY=0;entryDx=0;entryDy=0;endArrow=none;endFill=0;fillColor=#dae8fc;strokeColor=#6c8ebf;strokeWidth=2;" parent="1" source="3ZqTp2PG6nvpNKXpSqxm-2" target="3ZqTp2PG6nvpNKXpSqxm-8" edge="1">
          <mxGeometry relative="1" as="geometry" />
        </mxCell>
        <mxCell id="3ZqTp2PG6nvpNKXpSqxm-2" value="&lt;font style=&quot;font-size: 10px;&quot; color=&quot;#b85450&quot;&gt;\(0\)&lt;/font&gt;" style="ellipse;whiteSpace=wrap;html=1;aspect=fixed;fillColor=#f8cecc;strokeColor=#b85450;fontSize=10;align=center;" parent="1" vertex="1">
          <mxGeometry x="310" y="310" width="20" height="20" as="geometry" />
        </mxCell>
        <mxCell id="3ZqTp2PG6nvpNKXpSqxm-6" value="" style="ellipse;whiteSpace=wrap;html=1;aspect=fixed;fillColor=#d5e8d4;strokeColor=#82b366;" parent="1" vertex="1">
          <mxGeometry x="310" y="340" width="20" height="20" as="geometry" />
        </mxCell>
        <mxCell id="3ZqTp2PG6nvpNKXpSqxm-16" style="rounded=0;orthogonalLoop=1;jettySize=auto;html=1;exitX=0.5;exitY=1;exitDx=0;exitDy=0;entryX=0.5;entryY=0;entryDx=0;entryDy=0;endArrow=none;endFill=0;fillColor=#dae8fc;strokeColor=#6c8ebf;strokeWidth=2;" parent="1" source="3ZqTp2PG6nvpNKXpSqxm-8" target="3ZqTp2PG6nvpNKXpSqxm-15" edge="1">
          <mxGeometry relative="1" as="geometry" />
        </mxCell>
        <mxCell id="3ZqTp2PG6nvpNKXpSqxm-18" style="rounded=0;orthogonalLoop=1;jettySize=auto;html=1;exitX=1;exitY=1;exitDx=0;exitDy=0;entryX=0;entryY=0;entryDx=0;entryDy=0;fillColor=#f5f5f5;strokeColor=#666666;endArrow=none;endFill=0;opacity=30;" parent="1" source="3ZqTp2PG6nvpNKXpSqxm-8" target="3ZqTp2PG6nvpNKXpSqxm-17" edge="1">
          <mxGeometry relative="1" as="geometry" />
        </mxCell>
        <mxCell id="3ZqTp2PG6nvpNKXpSqxm-8" value="&lt;font style=&quot;font-size: 10px;&quot;&gt;\(1\)&lt;/font&gt;" style="ellipse;whiteSpace=wrap;html=1;aspect=fixed;fillColor=#dae8fc;strokeColor=#6c8ebf;fontSize=10;align=center;fontColor=#6c8ebf;" parent="1" vertex="1">
          <mxGeometry x="359.75" y="330" width="20" height="20" as="geometry" />
        </mxCell>
        <mxCell id="3ZqTp2PG6nvpNKXpSqxm-11" style="rounded=0;orthogonalLoop=1;jettySize=auto;html=1;exitX=1;exitY=0;exitDx=0;exitDy=0;entryX=0;entryY=1;entryDx=0;entryDy=0;endArrow=none;endFill=0;fillColor=#f5f5f5;strokeColor=#666666;opacity=30;" parent="1" source="3ZqTp2PG6nvpNKXpSqxm-10" target="3ZqTp2PG6nvpNKXpSqxm-2" edge="1">
          <mxGeometry relative="1" as="geometry" />
        </mxCell>
        <mxCell id="3ZqTp2PG6nvpNKXpSqxm-10" value="" style="ellipse;whiteSpace=wrap;html=1;aspect=fixed;fillColor=#f5f5f5;fontColor=#333333;strokeColor=#666666;opacity=30;" parent="1" vertex="1">
          <mxGeometry x="295" y="335" width="10" height="10" as="geometry" />
        </mxCell>
        <mxCell id="3ZqTp2PG6nvpNKXpSqxm-12" value="&lt;font color=&quot;#82b366&quot;&gt;\(S_4\)&lt;/font&gt;" style="text;html=1;align=center;verticalAlign=middle;whiteSpace=wrap;rounded=0;fontSize=10;" parent="1" vertex="1">
          <mxGeometry x="310" y="361" width="20" height="10" as="geometry" />
        </mxCell>
        <mxCell id="3ZqTp2PG6nvpNKXpSqxm-13" style="rounded=0;orthogonalLoop=1;jettySize=auto;html=1;exitX=1;exitY=0;exitDx=0;exitDy=0;entryX=0;entryY=1;entryDx=0;entryDy=0;endArrow=none;endFill=0;fillColor=#f5f5f5;strokeColor=#666666;opacity=30;" parent="1" source="3ZqTp2PG6nvpNKXpSqxm-14" target="3ZqTp2PG6nvpNKXpSqxm-8" edge="1">
          <mxGeometry relative="1" as="geometry">
            <mxPoint x="364.38" y="350" as="targetPoint" />
          </mxGeometry>
        </mxCell>
        <mxCell id="3ZqTp2PG6nvpNKXpSqxm-14" value="" style="ellipse;whiteSpace=wrap;html=1;aspect=fixed;fillColor=#f5f5f5;fontColor=#333333;strokeColor=#666666;opacity=30;" parent="1" vertex="1">
          <mxGeometry x="344.75" y="355" width="10" height="10" as="geometry" />
        </mxCell>
        <mxCell id="3ZqTp2PG6nvpNKXpSqxm-15" value="" style="ellipse;whiteSpace=wrap;html=1;aspect=fixed;fillColor=#dae8fc;strokeColor=#6c8ebf;" parent="1" vertex="1">
          <mxGeometry x="359.75" y="360" width="20" height="20" as="geometry" />
        </mxCell>
        <mxCell id="3ZqTp2PG6nvpNKXpSqxm-17" value="" style="ellipse;whiteSpace=wrap;html=1;aspect=fixed;fillColor=#f5f5f5;fontColor=#333333;strokeColor=#666666;opacity=30;" parent="1" vertex="1">
          <mxGeometry x="384.75" y="355" width="10" height="10" as="geometry" />
        </mxCell>
        <mxCell id="3ZqTp2PG6nvpNKXpSqxm-19" value="&lt;font&gt;\(S_6\)&lt;/font&gt;" style="text;html=1;align=center;verticalAlign=middle;whiteSpace=wrap;rounded=0;fontSize=10;fontColor=#6c8ebf;" parent="1" vertex="1">
          <mxGeometry x="359.75" y="381" width="20" height="10" as="geometry" />
        </mxCell>
        <mxCell id="3ZqTp2PG6nvpNKXpSqxm-20" style="rounded=0;orthogonalLoop=1;jettySize=auto;html=1;exitX=0.5;exitY=1;exitDx=0;exitDy=0;entryX=0.5;entryY=0;entryDx=0;entryDy=0;endArrow=none;endFill=0;fillColor=#f5f5f5;strokeColor=#666666;opacity=30;" parent="1" source="3ZqTp2PG6nvpNKXpSqxm-22" target="3ZqTp2PG6nvpNKXpSqxm-24" edge="1">
          <mxGeometry relative="1" as="geometry" />
        </mxCell>
        <mxCell id="3ZqTp2PG6nvpNKXpSqxm-21" style="rounded=0;orthogonalLoop=1;jettySize=auto;html=1;exitX=1;exitY=1;exitDx=0;exitDy=0;entryX=0;entryY=0;entryDx=0;entryDy=0;endArrow=none;endFill=0;fillColor=#f5f5f5;strokeColor=#666666;opacity=30;" parent="1" source="3ZqTp2PG6nvpNKXpSqxm-22" target="3ZqTp2PG6nvpNKXpSqxm-23" edge="1">
          <mxGeometry relative="1" as="geometry" />
        </mxCell>
        <mxCell id="3ZqTp2PG6nvpNKXpSqxm-28" style="rounded=0;orthogonalLoop=1;jettySize=auto;html=1;exitX=1;exitY=0;exitDx=0;exitDy=0;entryX=0;entryY=1;entryDx=0;entryDy=0;opacity=30;fillColor=#f5f5f5;strokeColor=#666666;endArrow=none;endFill=0;" parent="1" source="3ZqTp2PG6nvpNKXpSqxm-22" target="3ZqTp2PG6nvpNKXpSqxm-1" edge="1">
          <mxGeometry relative="1" as="geometry" />
        </mxCell>
        <mxCell id="3ZqTp2PG6nvpNKXpSqxm-22" value="&lt;font style=&quot;font-size: 10px;&quot; color=&quot;#d1d1d1&quot;&gt;\(3\)&lt;/font&gt;" style="ellipse;whiteSpace=wrap;html=1;aspect=fixed;fillColor=#f5f5f5;strokeColor=#666666;fontColor=#333333;opacity=30;fontSize=10;" parent="1" vertex="1">
          <mxGeometry x="260" y="300" width="20" height="20" as="geometry" />
        </mxCell>
        <mxCell id="3ZqTp2PG6nvpNKXpSqxm-23" value="" style="ellipse;whiteSpace=wrap;html=1;aspect=fixed;fillColor=#f5f5f5;strokeColor=#666666;fontColor=#333333;opacity=30;" parent="1" vertex="1">
          <mxGeometry x="285" y="325" width="10" height="10" as="geometry" />
        </mxCell>
        <mxCell id="3ZqTp2PG6nvpNKXpSqxm-24" value="" style="ellipse;whiteSpace=wrap;html=1;aspect=fixed;fillColor=#f5f5f5;strokeColor=#666666;fontColor=#333333;opacity=30;" parent="1" vertex="1">
          <mxGeometry x="265" y="330" width="10" height="10" as="geometry" />
        </mxCell>
        <mxCell id="3ZqTp2PG6nvpNKXpSqxm-25" style="rounded=0;orthogonalLoop=1;jettySize=auto;html=1;exitX=1;exitY=0;exitDx=0;exitDy=0;entryX=0;entryY=1;entryDx=0;entryDy=0;fillColor=#f5f5f5;strokeColor=#666666;endArrow=none;endFill=0;opacity=30;" parent="1" source="3ZqTp2PG6nvpNKXpSqxm-26" target="3ZqTp2PG6nvpNKXpSqxm-22" edge="1">
          <mxGeometry relative="1" as="geometry" />
        </mxCell>
        <mxCell id="3ZqTp2PG6nvpNKXpSqxm-26" value="" style="ellipse;whiteSpace=wrap;html=1;aspect=fixed;fillColor=#f5f5f5;strokeColor=#666666;fontColor=#333333;opacity=30;" parent="1" vertex="1">
          <mxGeometry x="245" y="325" width="10" height="10" as="geometry" />
        </mxCell>
        <mxCell id="3ZqTp2PG6nvpNKXpSqxm-29" value="&lt;font style=&quot;font-size: 6px;&quot;&gt;\(S_0\)&lt;/font&gt;" style="text;html=1;align=center;verticalAlign=middle;whiteSpace=wrap;rounded=0;fontSize=6;fontColor=#CCCCCC;" parent="1" vertex="1">
          <mxGeometry x="245" y="337" width="10" height="5" as="geometry" />
        </mxCell>
        <mxCell id="3ZqTp2PG6nvpNKXpSqxm-33" value="&lt;font style=&quot;font-size: 6px;&quot;&gt;\(S_1\)&lt;/font&gt;" style="text;html=1;align=center;verticalAlign=middle;whiteSpace=wrap;rounded=0;fontSize=6;fontColor=#CCCCCC;" parent="1" vertex="1">
          <mxGeometry x="265" y="342" width="10" height="5" as="geometry" />
        </mxCell>
        <mxCell id="3ZqTp2PG6nvpNKXpSqxm-34" value="&lt;font style=&quot;font-size: 6px;&quot;&gt;\(S_2\)&lt;/font&gt;" style="text;html=1;align=center;verticalAlign=middle;whiteSpace=wrap;rounded=0;fontSize=6;fontColor=#CCCCCC;" parent="1" vertex="1">
          <mxGeometry x="285" y="316.5" width="10" height="5" as="geometry" />
        </mxCell>
        <mxCell id="3ZqTp2PG6nvpNKXpSqxm-35" value="&lt;font style=&quot;font-size: 6px;&quot;&gt;\(S_3\)&lt;/font&gt;" style="text;html=1;align=center;verticalAlign=middle;whiteSpace=wrap;rounded=0;fontSize=6;fontColor=#CCCCCC;" parent="1" vertex="1">
          <mxGeometry x="295" y="347" width="10" height="5" as="geometry" />
        </mxCell>
        <mxCell id="3ZqTp2PG6nvpNKXpSqxm-36" value="&lt;font style=&quot;font-size: 6px;&quot;&gt;\(S_8\)&lt;/font&gt;" style="text;html=1;align=center;verticalAlign=middle;whiteSpace=wrap;rounded=0;fontSize=6;fontColor=#CCCCCC;" parent="1" vertex="1">
          <mxGeometry x="334.75" y="296.5" width="10" height="5" as="geometry" />
        </mxCell>
        <mxCell id="3ZqTp2PG6nvpNKXpSqxm-37" value="&lt;font style=&quot;font-size: 6px;&quot;&gt;\(S_5\)&lt;/font&gt;" style="text;html=1;align=center;verticalAlign=middle;whiteSpace=wrap;rounded=0;fontSize=6;fontColor=#CCCCCC;" parent="1" vertex="1">
          <mxGeometry x="344.75" y="367.5" width="10" height="5" as="geometry" />
        </mxCell>
        <mxCell id="3ZqTp2PG6nvpNKXpSqxm-39" value="&lt;font style=&quot;font-size: 6px;&quot;&gt;\(S_7\)&lt;/font&gt;" style="text;html=1;align=center;verticalAlign=middle;whiteSpace=wrap;rounded=0;fontSize=6;fontColor=#CCCCCC;" parent="1" vertex="1">
          <mxGeometry x="384.75" y="367.5" width="10" height="5" as="geometry" />
        </mxCell>
        <mxCell id="3ZqTp2PG6nvpNKXpSqxm-40" value="" style="endArrow=classicThin;html=1;rounded=0;endFill=1;fillColor=#f8cecc;strokeColor=#b85450;exitX=0;exitY=0.5;exitDx=0;exitDy=0;" parent="1" source="3ZqTp2PG6nvpNKXpSqxm-41" edge="1">
          <mxGeometry width="50" height="50" relative="1" as="geometry">
            <mxPoint x="373" y="320" as="sourcePoint" />
            <mxPoint x="333" y="320" as="targetPoint" />
          </mxGeometry>
        </mxCell>
        <mxCell id="3ZqTp2PG6nvpNKXpSqxm-41" value="Distinct operator on \(q_0\)" style="text;html=1;align=center;verticalAlign=middle;whiteSpace=wrap;rounded=0;fontSize=10;fontColor=#b85450;" parent="1" vertex="1">
          <mxGeometry x="386.12" y="311.5" width="107.75" height="18.5" as="geometry" />
        </mxCell>
      </root>
    </mxGraphModel>
  </diagram>
</mxfile>
